<mxfile host="app.diagrams.net" agent="Mozilla/5.0 (Windows NT 10.0; Win64; x64) AppleWebKit/537.36 (KHTML, like Gecko) Chrome/136.0.0.0 Safari/537.36" version="26.3.0">
  <diagram name="Page-1" id="CbI2m7dz6os1ifeBi94q">
    <mxGraphModel dx="7612" dy="3118" grid="1" gridSize="10" guides="1" tooltips="1" connect="1" arrows="1" fold="1" page="1" pageScale="1" pageWidth="827" pageHeight="1169" math="0" shadow="0">
      <root>
        <mxCell id="0" />
        <mxCell id="1" parent="0" />
        <mxCell id="9g64UyC_b-SblmxXg9er-1" value="&amp;lt;&amp;lt;Controller&amp;gt;&amp;gt;&lt;div&gt;SolverAccountController&lt;/div&gt;" style="swimlane;fontStyle=1;align=center;verticalAlign=top;childLayout=stackLayout;horizontal=1;startSize=42;horizontalStack=0;resizeParent=1;resizeParentMax=0;resizeLast=0;collapsible=1;marginBottom=0;whiteSpace=wrap;html=1;fillColor=#FF6666;" vertex="1" parent="1">
          <mxGeometry x="-5430" y="-1840" width="232" height="102" as="geometry" />
        </mxCell>
        <mxCell id="9g64UyC_b-SblmxXg9er-2" value="" style="line;strokeWidth=1;fillColor=none;align=left;verticalAlign=middle;spacingTop=-1;spacingLeft=3;spacingRight=3;rotatable=0;labelPosition=right;points=[];portConstraint=eastwest;strokeColor=inherit;" vertex="1" parent="9g64UyC_b-SblmxXg9er-1">
          <mxGeometry y="42" width="232" height="8" as="geometry" />
        </mxCell>
        <mxCell id="9g64UyC_b-SblmxXg9er-3" value="+invite_solver(solver_id:int): Invitation" style="text;strokeColor=none;fillColor=none;align=left;verticalAlign=top;spacingLeft=4;spacingRight=4;overflow=hidden;rotatable=0;points=[[0,0.5],[1,0.5]];portConstraint=eastwest;whiteSpace=wrap;html=1;" vertex="1" parent="9g64UyC_b-SblmxXg9er-1">
          <mxGeometry y="50" width="232" height="26" as="geometry" />
        </mxCell>
        <mxCell id="9g64UyC_b-SblmxXg9er-4" value="+view_solver_answer(riddle:Riddle):void&lt;div&gt;&lt;br&gt;&lt;/div&gt;" style="text;strokeColor=none;fillColor=none;align=left;verticalAlign=top;spacingLeft=4;spacingRight=4;overflow=hidden;rotatable=0;points=[[0,0.5],[1,0.5]];portConstraint=eastwest;whiteSpace=wrap;html=1;" vertex="1" parent="9g64UyC_b-SblmxXg9er-1">
          <mxGeometry y="76" width="232" height="26" as="geometry" />
        </mxCell>
        <mxCell id="9g64UyC_b-SblmxXg9er-5" value="" style="endArrow=none;html=1;rounded=0;align=center;verticalAlign=top;endFill=0;labelBackgroundColor=none;entryX=0;entryY=0.5;entryDx=0;entryDy=0;exitX=0;exitY=0;exitDx=150;exitDy=42;exitPerimeter=0;" edge="1" parent="1" source="9g64UyC_b-SblmxXg9er-34" target="9g64UyC_b-SblmxXg9er-3">
          <mxGeometry relative="1" as="geometry">
            <mxPoint x="-5758" y="-1786" as="sourcePoint" />
            <mxPoint x="-5406" y="-1948" as="targetPoint" />
          </mxGeometry>
        </mxCell>
        <mxCell id="9g64UyC_b-SblmxXg9er-6" value="" style="html=1;verticalAlign=bottom;labelBackgroundColor=none;endArrow=none;endFill=0;endSize=6;align=left;rounded=0;entryX=0;entryY=0.5;entryDx=0;entryDy=0;exitX=0;exitY=0;exitDx=150;exitDy=42;exitPerimeter=0;" edge="1" parent="1" source="9g64UyC_b-SblmxXg9er-33" target="9g64UyC_b-SblmxXg9er-3">
          <mxGeometry x="-1" relative="1" as="geometry">
            <mxPoint x="-5538" y="-1636" as="sourcePoint" />
            <mxPoint x="-5406" y="-1948" as="targetPoint" />
          </mxGeometry>
        </mxCell>
        <mxCell id="9g64UyC_b-SblmxXg9er-7" value="" style="endArrow=open;endFill=1;endSize=12;html=1;rounded=0;exitX=0;exitY=0.5;exitDx=0;exitDy=0;entryX=0;entryY=0;entryDx=150;entryDy=42;entryPerimeter=0;" edge="1" parent="1" source="9g64UyC_b-SblmxXg9er-3" target="9g64UyC_b-SblmxXg9er-32">
          <mxGeometry width="160" relative="1" as="geometry">
            <mxPoint x="-5296" y="-1911" as="sourcePoint" />
            <mxPoint x="-5718" y="-1846" as="targetPoint" />
            <Array as="points" />
          </mxGeometry>
        </mxCell>
        <mxCell id="9g64UyC_b-SblmxXg9er-8" value="&lt;div&gt;&amp;lt;&amp;lt;Entity&amp;gt;&amp;gt;&lt;/div&gt;SolverAccount" style="swimlane;fontStyle=1;align=center;verticalAlign=top;childLayout=stackLayout;horizontal=1;startSize=36;horizontalStack=0;resizeParent=1;resizeParentMax=0;resizeLast=0;collapsible=1;marginBottom=0;whiteSpace=wrap;html=1;fillColor=#9AC7BF;" vertex="1" parent="1">
          <mxGeometry x="-5462.5" y="-1696" width="308" height="201" as="geometry" />
        </mxCell>
        <mxCell id="9g64UyC_b-SblmxXg9er-9" value="+invited: Boolean" style="text;strokeColor=none;fillColor=none;align=left;verticalAlign=top;spacingLeft=4;spacingRight=4;overflow=hidden;rotatable=0;points=[[0,0.5],[1,0.5]];portConstraint=eastwest;whiteSpace=wrap;html=1;" vertex="1" parent="9g64UyC_b-SblmxXg9er-8">
          <mxGeometry y="36" width="308" height="26" as="geometry" />
        </mxCell>
        <mxCell id="9g64UyC_b-SblmxXg9er-10" value="+used_hints: Integer&lt;div&gt;&lt;br&gt;&lt;/div&gt;" style="text;strokeColor=none;fillColor=none;align=left;verticalAlign=top;spacingLeft=4;spacingRight=4;overflow=hidden;rotatable=0;points=[[0,0.5],[1,0.5]];portConstraint=eastwest;whiteSpace=wrap;html=1;" vertex="1" parent="9g64UyC_b-SblmxXg9er-8">
          <mxGeometry y="62" width="308" height="27" as="geometry" />
        </mxCell>
        <mxCell id="9g64UyC_b-SblmxXg9er-11" value="" style="line;strokeWidth=1;fillColor=none;align=left;verticalAlign=middle;spacingTop=-1;spacingLeft=3;spacingRight=3;rotatable=0;labelPosition=right;points=[];portConstraint=eastwest;strokeColor=inherit;" vertex="1" parent="9g64UyC_b-SblmxXg9er-8">
          <mxGeometry y="89" width="308" height="8" as="geometry" />
        </mxCell>
        <mxCell id="9g64UyC_b-SblmxXg9er-12" value="+ getInvited(): boolean" style="text;strokeColor=none;fillColor=none;align=left;verticalAlign=top;spacingLeft=4;spacingRight=4;overflow=hidden;rotatable=0;points=[[0,0.5],[1,0.5]];portConstraint=eastwest;whiteSpace=wrap;html=1;" vertex="1" parent="9g64UyC_b-SblmxXg9er-8">
          <mxGeometry y="97" width="308" height="26" as="geometry" />
        </mxCell>
        <mxCell id="9g64UyC_b-SblmxXg9er-13" value="+ setInvited(invited: Boolean): void" style="text;strokeColor=none;fillColor=none;align=left;verticalAlign=top;spacingLeft=4;spacingRight=4;overflow=hidden;rotatable=0;points=[[0,0.5],[1,0.5]];portConstraint=eastwest;whiteSpace=wrap;html=1;" vertex="1" parent="9g64UyC_b-SblmxXg9er-8">
          <mxGeometry y="123" width="308" height="26" as="geometry" />
        </mxCell>
        <mxCell id="9g64UyC_b-SblmxXg9er-14" value="+ getUsedHints(): Integer" style="text;strokeColor=none;fillColor=none;align=left;verticalAlign=top;spacingLeft=4;spacingRight=4;overflow=hidden;rotatable=0;points=[[0,0.5],[1,0.5]];portConstraint=eastwest;whiteSpace=wrap;html=1;" vertex="1" parent="9g64UyC_b-SblmxXg9er-8">
          <mxGeometry y="149" width="308" height="26" as="geometry" />
        </mxCell>
        <mxCell id="9g64UyC_b-SblmxXg9er-15" value="+ setUsedHints(usedHints: Integer): void" style="text;strokeColor=none;fillColor=none;align=left;verticalAlign=top;spacingLeft=4;spacingRight=4;overflow=hidden;rotatable=0;points=[[0,0.5],[1,0.5]];portConstraint=eastwest;whiteSpace=wrap;html=1;" vertex="1" parent="9g64UyC_b-SblmxXg9er-8">
          <mxGeometry y="175" width="308" height="26" as="geometry" />
        </mxCell>
        <mxCell id="9g64UyC_b-SblmxXg9er-16" value="" style="endArrow=open;endFill=1;endSize=12;html=1;rounded=0;entryX=0.5;entryY=0;entryDx=0;entryDy=0;exitX=0.511;exitY=1.058;exitDx=0;exitDy=0;exitPerimeter=0;" edge="1" parent="1" source="9g64UyC_b-SblmxXg9er-4" target="9g64UyC_b-SblmxXg9er-8">
          <mxGeometry width="160" relative="1" as="geometry">
            <mxPoint x="-5398" y="-1696" as="sourcePoint" />
            <mxPoint x="-5287" y="-2092" as="targetPoint" />
            <Array as="points" />
          </mxGeometry>
        </mxCell>
        <mxCell id="9g64UyC_b-SblmxXg9er-17" value="" style="endArrow=open;endFill=1;endSize=12;html=1;rounded=0;exitX=1;exitY=0.5;exitDx=0;exitDy=0;entryX=0;entryY=0;entryDx=0;entryDy=42;entryPerimeter=0;" edge="1" parent="1" source="9g64UyC_b-SblmxXg9er-3" target="9g64UyC_b-SblmxXg9er-30">
          <mxGeometry width="160" relative="1" as="geometry">
            <mxPoint x="-5148" y="-1876" as="sourcePoint" />
            <mxPoint x="-5098" y="-1777" as="targetPoint" />
            <Array as="points" />
          </mxGeometry>
        </mxCell>
        <mxCell id="9g64UyC_b-SblmxXg9er-18" value="&amp;lt;&amp;lt;Boundary&amp;gt;&amp;gt;&lt;div&gt;HomepageUI&lt;/div&gt;" style="swimlane;fontStyle=1;align=center;verticalAlign=top;childLayout=stackLayout;horizontal=1;startSize=40;horizontalStack=0;resizeParent=1;resizeParentMax=0;resizeLast=0;collapsible=1;marginBottom=0;whiteSpace=wrap;html=1;fillColor=#CCCCFF;" vertex="1" parent="1">
          <mxGeometry x="-5398" y="-2240" width="179" height="302" as="geometry" />
        </mxCell>
        <mxCell id="9g64UyC_b-SblmxXg9er-19" value="+btnChooseStory: button" style="text;strokeColor=none;fillColor=none;align=left;verticalAlign=top;spacingLeft=4;spacingRight=4;overflow=hidden;rotatable=0;points=[[0,0.5],[1,0.5]];portConstraint=eastwest;whiteSpace=wrap;html=1;" vertex="1" parent="9g64UyC_b-SblmxXg9er-18">
          <mxGeometry y="40" width="179" height="26" as="geometry" />
        </mxCell>
        <mxCell id="9g64UyC_b-SblmxXg9er-20" value="+lblWelcomeBack: label" style="text;strokeColor=none;fillColor=none;align=left;verticalAlign=top;spacingLeft=4;spacingRight=4;overflow=hidden;rotatable=0;points=[[0,0.5],[1,0.5]];portConstraint=eastwest;whiteSpace=wrap;html=1;" vertex="1" parent="9g64UyC_b-SblmxXg9er-18">
          <mxGeometry y="66" width="179" height="26" as="geometry" />
        </mxCell>
        <mxCell id="9g64UyC_b-SblmxXg9er-21" value="+lblUsername: label&lt;span style=&quot;color: rgba(0, 0, 0, 0); font-family: monospace; font-size: 0px; text-wrap-mode: nowrap;&quot;&gt;%3CmxGraphModel%3E%3Croot%3E%3CmxCell%20id%3D%220%22%2F%3E%3CmxCell%20id%3D%221%22%20parent%3D%220%22%2F%3E%3CmxCell%20id%3D%222%22%20value%3D%22%2BbtnChooseStory%3A%20button%22%20style%3D%22text%3BstrokeColor%3Dnone%3BfillColor%3Dnone%3Balign%3Dleft%3BverticalAlign%3Dtop%3BspacingLeft%3D4%3BspacingRight%3D4%3Boverflow%3Dhidden%3Brotatable%3D0%3Bpoints%3D%5B%5B0%2C0.5%5D%2C%5B1%2C0.5%5D%5D%3BportConstraint%3Deastwest%3BwhiteSpace%3Dwrap%3Bhtml%3D1%3B%22%20vertex%3D%221%22%20parent%3D%221%22%3E%3CmxGeometry%20x%3D%22-3540%22%20y%3D%22-1824%22%20width%3D%22179%22%20height%3D%2226%22%20as%3D%22geometry%22%2F%3E%3C%2FmxCell%3E%3C%2Froot%3E%3C%2FmxGraphModel%3E&lt;/span&gt;" style="text;strokeColor=none;fillColor=none;align=left;verticalAlign=top;spacingLeft=4;spacingRight=4;overflow=hidden;rotatable=0;points=[[0,0.5],[1,0.5]];portConstraint=eastwest;whiteSpace=wrap;html=1;" vertex="1" parent="9g64UyC_b-SblmxXg9er-18">
          <mxGeometry y="92" width="179" height="26" as="geometry" />
        </mxCell>
        <mxCell id="9g64UyC_b-SblmxXg9er-22" value="+btnSettings: button" style="text;strokeColor=none;fillColor=none;align=left;verticalAlign=top;spacingLeft=4;spacingRight=4;overflow=hidden;rotatable=0;points=[[0,0.5],[1,0.5]];portConstraint=eastwest;whiteSpace=wrap;html=1;" vertex="1" parent="9g64UyC_b-SblmxXg9er-18">
          <mxGeometry y="118" width="179" height="26" as="geometry" />
        </mxCell>
        <mxCell id="9g64UyC_b-SblmxXg9er-23" value="+btnReturnHome: button" style="text;strokeColor=none;fillColor=none;align=left;verticalAlign=top;spacingLeft=4;spacingRight=4;overflow=hidden;rotatable=0;points=[[0,0.5],[1,0.5]];portConstraint=eastwest;whiteSpace=wrap;html=1;" vertex="1" parent="9g64UyC_b-SblmxXg9er-18">
          <mxGeometry y="144" width="179" height="26" as="geometry" />
        </mxCell>
        <mxCell id="9g64UyC_b-SblmxXg9er-24" value="+btnLogout: button" style="text;strokeColor=none;fillColor=none;align=left;verticalAlign=top;spacingLeft=4;spacingRight=4;overflow=hidden;rotatable=0;points=[[0,0.5],[1,0.5]];portConstraint=eastwest;whiteSpace=wrap;html=1;" vertex="1" parent="9g64UyC_b-SblmxXg9er-18">
          <mxGeometry y="170" width="179" height="26" as="geometry" />
        </mxCell>
        <mxCell id="9g64UyC_b-SblmxXg9er-25" value="" style="line;strokeWidth=1;fillColor=none;align=left;verticalAlign=middle;spacingTop=-1;spacingLeft=3;spacingRight=3;rotatable=0;labelPosition=right;points=[];portConstraint=eastwest;strokeColor=inherit;" vertex="1" parent="9g64UyC_b-SblmxXg9er-18">
          <mxGeometry y="196" width="179" height="8" as="geometry" />
        </mxCell>
        <mxCell id="9g64UyC_b-SblmxXg9er-26" value="+btnChooseStoryPress(): void" style="text;strokeColor=none;fillColor=none;align=left;verticalAlign=top;spacingLeft=4;spacingRight=4;overflow=hidden;rotatable=0;points=[[0,0.5],[1,0.5]];portConstraint=eastwest;whiteSpace=wrap;html=1;" vertex="1" parent="9g64UyC_b-SblmxXg9er-18">
          <mxGeometry y="204" width="179" height="20" as="geometry" />
        </mxCell>
        <mxCell id="9g64UyC_b-SblmxXg9er-27" value="+btnReturnHomePress(): void" style="text;strokeColor=none;fillColor=none;align=left;verticalAlign=top;spacingLeft=4;spacingRight=4;overflow=hidden;rotatable=0;points=[[0,0.5],[1,0.5]];portConstraint=eastwest;whiteSpace=wrap;html=1;" vertex="1" parent="9g64UyC_b-SblmxXg9er-18">
          <mxGeometry y="224" width="179" height="26" as="geometry" />
        </mxCell>
        <mxCell id="9g64UyC_b-SblmxXg9er-28" value="+btnSettingsPress(): void" style="text;strokeColor=none;fillColor=none;align=left;verticalAlign=top;spacingLeft=4;spacingRight=4;overflow=hidden;rotatable=0;points=[[0,0.5],[1,0.5]];portConstraint=eastwest;whiteSpace=wrap;html=1;" vertex="1" parent="9g64UyC_b-SblmxXg9er-18">
          <mxGeometry y="250" width="179" height="26" as="geometry" />
        </mxCell>
        <mxCell id="9g64UyC_b-SblmxXg9er-29" value="+btnLogoutPress(): void" style="text;strokeColor=none;fillColor=none;align=left;verticalAlign=top;spacingLeft=4;spacingRight=4;overflow=hidden;rotatable=0;points=[[0,0.5],[1,0.5]];portConstraint=eastwest;whiteSpace=wrap;html=1;" vertex="1" parent="9g64UyC_b-SblmxXg9er-18">
          <mxGeometry y="276" width="179" height="26" as="geometry" />
        </mxCell>
        <mxCell id="9g64UyC_b-SblmxXg9er-30" value="Invitation Package&amp;nbsp;" style="shape=folder;fontStyle=1;spacingTop=10;tabWidth=40;tabHeight=14;tabPosition=left;html=1;whiteSpace=wrap;" vertex="1" parent="1">
          <mxGeometry x="-5122" y="-1824" width="150" height="70" as="geometry" />
        </mxCell>
        <mxCell id="9g64UyC_b-SblmxXg9er-31" value="" style="endArrow=open;endFill=1;endSize=12;html=1;rounded=0;entryX=0.5;entryY=0;entryDx=0;entryDy=0;exitX=0.472;exitY=1.03;exitDx=0;exitDy=0;exitPerimeter=0;" edge="1" parent="1" source="9g64UyC_b-SblmxXg9er-29" target="9g64UyC_b-SblmxXg9er-1">
          <mxGeometry width="160" relative="1" as="geometry">
            <mxPoint x="-5301" y="-1637" as="sourcePoint" />
            <mxPoint x="-5301" y="-1723" as="targetPoint" />
            <Array as="points" />
          </mxGeometry>
        </mxCell>
        <mxCell id="9g64UyC_b-SblmxXg9er-32" value="Hint Package" style="shape=folder;fontStyle=1;spacingTop=10;tabWidth=40;tabHeight=14;tabPosition=left;html=1;whiteSpace=wrap;" vertex="1" parent="1">
          <mxGeometry x="-5778" y="-1899" width="150" height="70" as="geometry" />
        </mxCell>
        <mxCell id="9g64UyC_b-SblmxXg9er-33" value="Answer Package&amp;nbsp;" style="shape=folder;fontStyle=1;spacingTop=10;tabWidth=40;tabHeight=14;tabPosition=left;html=1;whiteSpace=wrap;" vertex="1" parent="1">
          <mxGeometry x="-5778" y="-1708" width="150" height="70" as="geometry" />
        </mxCell>
        <mxCell id="9g64UyC_b-SblmxXg9er-34" value="Riddle Package&amp;nbsp;" style="shape=folder;fontStyle=1;spacingTop=10;tabWidth=40;tabHeight=14;tabPosition=left;html=1;whiteSpace=wrap;" vertex="1" parent="1">
          <mxGeometry x="-5778" y="-1808" width="150" height="70" as="geometry" />
        </mxCell>
      </root>
    </mxGraphModel>
  </diagram>
</mxfile>
